<svg width="18" height="18" viewBox="0 0 24 24" fill="none" xmlns="http://www.w3.org/2000/svg">
<path d="M22.56 12.25C22.56 11.47 22.49 10.72 22.36 10H12V14.26H17.92C17.66 15.63 16.86 16.79 15.68 17.69V20.07H19.21C21.36 18.07 22.56 15.33 22.56 12.25Z" fill="#4285F4"/>
<path d="M12 23C14.97 23 17.46 22.02 19.21 20.07L15.68 17.69C14.73 18.3 13.56 18.65 12 18.65C9.17 18.65 6.71 16.74 4.96 14.22H1.29V16.68C2.99 20.01 7.14 23 12 23Z" fill="#34A853"/>
<path d="M4.96 14.22C4.74 13.61 4.62 12.97 4.62 12.32C4.62 11.67 4.74 11.03 4.96 10.42V7.96H1.29C0.47 9.55 0 11.22 0 12.32C0 13.42 0.47 15.09 1.29 16.68L4.96 14.22Z" fill="#FBBC05"/>
<path d="M12 5.38C13.78 5.38 15.35 6 16.6 7.19L19.35 4.44C17.45 2.65 14.97 1.5 12 1.5C7.14 1.5 2.99 4.49 1.29 7.96L4.96 10.42C6.71 7.9 9.17 5.38 12 5.38Z" fill="#EA4335"/>
</svg>

