<svg width="24" height="24" viewBox="0 0 24 24" fill="none" xmlns="http://www.w3.org/2000/svg">
<path d="M17 8C8 10 5.9 16.17 3.82 21.34L5.71 22L6.66 19.7C7.14 19.87 7.64 20 8.17 20C9.85 20 11.24 18.61 11.24 16.92C11.24 16.43 11.15 15.96 10.97 15.52L13.22 14.19C13.85 14.5 14.55 14.68 15.29 14.47C16.45 14.15 17.43 13.18 17.75 12.03C18.33 9.87 16.13 8.05 14 8.05C13.67 8.05 13.35 8.08 13.04 8.15L11.34 6.45C11.75 5.35 11.51 4.08 10.61 3.18C9.71 2.28 8.44 2.04 7.34 2.45L6.69 1.81L5.61 3.41L7.34 4.45C7.12 4.93 7 5.46 7 6C7 7.66 8.34 9 10 9L17 8Z" fill="currentColor"/>
</svg>

