<svg width="20" height="20" viewBox="0 0 24 24" fill="none" xmlns="http://www.w3.org/2000/svg">
<path d="M12 3C7.03 3 3 7.03 3 12S7.03 21 12 21C13.62 21 15.15 20.56 16.47 19.78C15.89 19.08 15.45 18.22 15.29 17.28C14.86 17.69 14.35 18 13.78 18C12.8 18 12 17.2 12 16.22C12 15.24 12.8 14.44 13.78 14.44C14.07 14.44 14.34 14.5 14.58 14.61C14.94 13.83 15.21 12.96 15.39 12.04C14.51 11.82 13.81 11.05 13.81 10.11C13.81 9.17 14.51 8.4 15.39 8.18C15.21 7.26 14.94 6.39 14.58 5.61C14.34 5.72 14.07 5.78 13.78 5.78C12.8 5.78 12 4.98 12 4C12 3.42 12.35 2.91 12.86 2.72C12.59 2.5 12.3 2.36 12 2.36C11.7 2.36 11.41 2.5 11.14 2.72C11.65 2.91 12 3.42 12 4C12 4.98 11.2 5.78 10.22 5.78C9.93 5.78 9.66 5.72 9.42 5.61C9.06 6.39 8.79 7.26 8.61 8.18C9.49 8.4 10.19 9.17 10.19 10.11C10.19 11.05 9.49 11.82 8.61 12.04C8.79 12.96 9.06 13.83 9.42 14.61C9.66 14.5 9.93 14.44 10.22 14.44C11.2 14.44 12 15.24 12 16.22C12 17.2 11.2 18 10.22 18C9.65 18 9.14 17.69 8.71 17.28C8.55 18.22 8.11 19.08 7.53 19.78C8.85 20.56 10.38 21 12 21C16.97 21 21 16.97 21 12S16.97 3 12 3Z" fill="currentColor"/>
</svg>

